<svg xmlns="http://www.w3.org/2000/svg" width="116" height="30" viewBox="0 0 116 30">
    <g fill="#FFF" fill-rule="nonzero">
        <path d="M30.186 4.887c0-.31.278-.557.556-.557h2.784c.34 0 .556.278.556.557v7.979h9.805v-7.98c0-.309.247-.556.556-.556h2.753c.31 0 .557.278.557.557v19.917c0 .31-.279.557-.557.557h-2.753a.554.554 0 0 1-.556-.557v-8.32h-9.805v8.29c0 .308-.247.556-.556.556h-2.784a.575.575 0 0 1-.556-.557V4.887zM54.247 4.887c0-.31.279-.557.557-.557h2.845c.34 0 .557.278.557.557v12.525c0 2.567 1.732 4.33 4.361 4.33 2.629 0 4.392-1.763 4.392-4.299V4.887c0-.31.247-.557.556-.557h2.846c.31 0 .557.278.557.557v12.742c0 4.577-3.65 8.041-8.382 8.041-4.732 0-8.35-3.464-8.35-8.041V4.887h.061zM77.381 4.546c0-.309.279-.525.557-.525h.464c.217 0 .371.061.526.216L91.175 17.32h.062V4.887c0-.31.248-.557.557-.557h2.752c.31 0 .557.278.557.557v20.226c0 .31-.278.526-.557.526h-.433a.678.678 0 0 1-.525-.216L81.34 11.876h-.062v12.928c0 .31-.247.557-.556.557H78a.575.575 0 0 1-.557-.557V4.546h-.062zM101.784 4.887c0-.31.247-.557.556-.557h12.248c.34 0 .556.278.556.557V7.36c0 .31-.247.557-.556.557h-8.908v4.917h7.423c.31 0 .557.278.557.557v2.505c0 .34-.279.557-.557.557h-7.423v5.257h8.908c.34 0 .556.279.556.557v2.474c0 .31-.247.557-.556.557H102.34a.554.554 0 0 1-.556-.557V4.887z"/>
        <g>
            <path d="M19.98 2.845c-.31.031-.434.031-.557.031-.897-.092-5.753 0-6.464.031-.433.031-.835.062-.835.062-.062 0-.186.031-.371.031-.155.03-.619.062-1.114.155-.68.123-1.237.34-1.484.433-.402.154-.712.34-1.176.556-.464.217-2.35 1.207-3.68 2.784-.835 1.02-1.423 1.856-1.732 2.443a11.946 11.946 0 0 0-1.02 2.845c0 .031-.155.68-.217 1.269-.31 2.567.495 5.072.557 5.288 0 0 1.02 3.186 3.65 5.35.216.186 1.05.96 2.659 1.764.526.247.804.433.99.494.65.31 1.515.557 3.68.619.711.03 1.268.03 1.825.03 1.67 0 3.37.094 5.072-.06.093 0 .433-.032.557.123.123.123.092.34.092.402s0 .31-.123.402c-.124.093-.31.093-.34.093-1.083.03-3.774.03-9-.155-1.578-.062-2.815-.68-4.33-1.577-.526-.31-1.98-1.206-3.433-2.907a13.659 13.659 0 0 1-1.949-3.031C-.309 17.165.031 14.196.155 13.237.495 10.732 1.392 8.97 1.7 8.443a12.703 12.703 0 0 1 2.876-3.525c2.536-2.196 5.227-2.753 5.877-2.846a.32.32 0 0 0 .123-.03s.217-.032.464-.063a13.69 13.69 0 0 1 1.3-.123c4.7-.124 7.082-.186 7.205-.186.124 0 .619-.03.805.155.154.154.061.65.061.711 0 0-.03.124-.092.217-.031.061-.186.092-.34.092z"/>
            <path d="M7.577 22.64c-1.763-1.362-2.845-3.341-3.34-5.444-.433-1.794-.34-3.588.31-5.382.804-2.412 2.257-4.206 4.422-5.443.124-.495.062-.99.062-1.484 0-.928-.093-.99-.928-.588-.062.03-.124.062-.185.093-1.794.959-3.248 2.257-4.33 3.959-.526.804-.928 1.67-1.237 2.536-.062.123-.124.34-.155.464-.124.463-.217.68-.248 1.113-.061.402-.154.928-.185 1.546-.062.743-.124 2.227.34 4.052.062.34.526 1.98 1.67 3.65.402.556.804 1.113 1.3 1.608.989 1.02 2.133 1.793 3.432 2.381.464.186.619.093.65-.402v-1.577c0-.155-.031-.31-.124-.402-.217-.031-.959-.186-1.454-.68zM15.34 6.866c-.773.062-1.113-.619-1.36-1.113-.217-.495-.186-1.114.123-1.701.464-.805 1.144-.928 1.918-.928 2.783 0 5.536.062 8.32 0 1.577-.031 2.226 1.237 1.948 2.505-.093.526-.928 1.237-1.485 1.237-3.093.03-6.247.062-9.34-.03M22.608 23.01c-.123 0-.247-.03-.402-.03-2.32 0-4.639 0-6.99.03-.432 0-.71.217-.99.557-.463.619-.587 1.299-.308 1.98.34.773.958 1.082 1.824 1.082 2.753-.031 5.474 0 8.258 0 .34 0 .65.03.99-.031h.123c.588-.031.805-.557.99-.959.464-1.02-.062-2.598-1.36-2.598-.681-.062-1.392-.03-2.135-.03M24.495 27.03c-.65.805-1.361 1.362-1.918 2.073-.309.402-.742.619-1.299.588-.742-.031-1.515-.062-2.257 0-.99.093-1.423-.619-2.01-1.145-.217-.216.123-.216.247-.216h2.536c.835 0 .835 0 .959-.835.03-.217.092-.433.37-.433 1.114-.031 2.197-.031 3.372-.031zM17.32 1.175C17.38.711 18.588 0 18.959 0h2.381c.34 0 .619.03.835.31.68.71 1.361 1.422 2.134 2.133.062.062.124.155.093.248-.03.123-.155.123-.31.123h-2.937c-.495 0-.495-.402-.433-.71.154-.558-.093-.712-.619-.712-.928.03-1.887.03-2.783.03v-.247z"/>
            <path d="M15.31 6.911c.092-.15.216-.2.37-.2 2.29 0 4.578 0 6.866.15h-.556c-2.196 0-4.33.05-6.526.05-.062.05-.093.05-.155 0z"/>
        </g>
    </g>
</svg>
