<?xml version="1.0" encoding="utf-8"?>
<!-- Generator: Adobe Illustrator 22.0.0, SVG Export Plug-In . SVG Version: 6.00 Build 0)  -->
<svg version="1.1" id="Layer_1" xmlns="http://www.w3.org/2000/svg" xmlns:xlink="http://www.w3.org/1999/xlink" x="0px" y="0px"
	 viewBox="0 0 100 100" style="enable-background:new 0 0 100 100;" xml:space="preserve">
<style type="text/css">
	.st0{fill:#FFFFFF;}
	.st1{fill:#9228C8;}
</style>
<g>
	<path class="st1" d="M71.8,11.2c-1,0.1-1.4,0.1-1.8,0.1c-2.9-0.3-18.6,0-20.9,0.1c-1.4,0.1-2.7,0.2-2.7,0.2c-0.2,0-0.6,0.1-1.2,0.1
		c-0.5,0.1-2,0.2-3.6,0.5c-2.2,0.4-4,1.1-4.8,1.4c-1.3,0.5-2.3,1.1-3.8,1.8c-1.5,0.7-7.6,3.9-11.9,9c-2.7,3.3-4.6,6-5.6,7.9
		c-2,3.9-2.9,7.4-3.3,9.2c0,0.1-0.5,2.2-0.7,4.1C10.5,54,13.1,62,13.3,62.7c0,0,3.3,10.3,11.8,17.3c0.7,0.6,3.4,3.1,8.6,5.7
		c1.7,0.8,2.6,1.4,3.2,1.6c2.1,1,4.9,1.8,11.9,2c2.3,0.1,4.1,0.1,5.9,0.1c5.4,0,10.9,0.3,16.4-0.2c0.3,0,1.4-0.1,1.8,0.4
		c0.4,0.4,0.3,1.1,0.3,1.3c0,0.2,0,1-0.4,1.3c-0.4,0.3-1,0.3-1.1,0.3c-3.5,0.1-12.2,0.1-29.1-0.5c-5.1-0.2-9.1-2.2-14-5.1
		c-1.7-1-6.4-3.9-11.1-9.4c-3.8-4.5-5.8-8.7-6.3-9.8C6.2,57.6,7.3,48,7.7,44.8c1.1-8.1,4-13.8,5-15.5c1.3-2.3,4.1-7,9.3-11.4
		c8.2-7.1,16.9-8.9,19-9.2c0.2,0,0.4-0.1,0.4-0.1s0.7-0.1,1.5-0.2C44.8,8.1,47.1,8,47.1,8C62.3,7.6,70,7.4,70.4,7.4
		c0.4,0,2-0.1,2.6,0.5c0.5,0.5,0.2,2.1,0.2,2.3c0,0-0.1,0.4-0.3,0.7C72.7,11.1,72.3,11.2,71.8,11.2z"/>
	<path class="st1" d="M31.7,75.2c-5.7-4.4-9.2-10.8-10.8-17.6c-1.4-5.8-1.1-11.6,1-17.4c2.6-7.7,7.3-13.5,14.4-17.5
		c0.4-1.6,0.2-3.2,0.2-4.8c0-3-0.3-3.2-3-1.9c-0.2,0.1-0.4,0.2-0.6,0.3c-5.8,3.1-10.5,7.3-14,12.8c-1.7,2.6-3,5.4-4,8.2
		c-0.2,0.4-0.4,1.1-0.5,1.5c-0.4,1.5-0.7,2.2-0.8,3.6c-0.2,1.3-0.5,3-0.6,5c-0.2,2.4-0.4,7.2,1.1,13.1c0.2,1.1,1.7,6.4,5.4,11.8
		c1.3,1.8,2.6,3.6,4.2,5.2c3.2,3.3,6.9,5.8,11.1,7.7c1.5,0.6,2,0.3,2.1-1.3c0-1.7,0-3.4,0-5.1c0-0.5-0.1-1-0.4-1.3
		C35.7,77.3,33.3,76.9,31.7,75.2z"/>
	<path class="st1" d="M56.8,24.2c-2.5,0.2-3.6-2-4.4-3.6c-0.7-1.6-0.6-3.6,0.4-5.5c1.5-2.6,3.7-3,6.2-3c9,0,17.9,0.2,26.9,0
		c5.1-0.1,7.2,4,6.3,8.1c-0.3,1.7-3,4-4.8,4c-10,0.1-20.2,0.2-30.2-0.1"/>
	<path class="st1" d="M80.2,76.5c-0.4,0-0.8-0.1-1.3-0.1c-7.5,0-15,0-22.6,0.1c-1.4,0-2.3,0.7-3.2,1.8c-1.5,2-1.9,4.2-1,6.4
		c1.1,2.5,3.1,3.5,5.9,3.5c8.9-0.1,17.7,0,26.7,0c1.1,0,2.1,0.1,3.2-0.1h0.4c1.9-0.1,2.6-1.8,3.2-3.1c1.5-3.3-0.2-8.4-4.4-8.4
		C85,76.4,82.7,76.5,80.2,76.5"/>
	<path class="st1" d="M86.4,89.4c-2.1,2.6-4.4,4.4-6.2,6.7c-1,1.3-2.4,2-4.2,1.9c-2.4-0.1-4.9-0.2-7.3,0c-3.2,0.3-4.6-2-6.5-3.7
		c-0.7-0.7,0.4-0.7,0.8-0.7c2.7,0,5.5,0,8.2,0c2.7,0,2.7,0,3.1-2.7c0.1-0.7,0.3-1.4,1.2-1.4C79.1,89.4,82.6,89.4,86.4,89.4z"/>
	<path class="st1" d="M63.1,5.8C63.4,4.3,67.3,2,68.5,2c2.5,0,5.1,0,7.7,0c1.1,0,2,0.1,2.7,1c2.2,2.3,4.4,4.6,6.9,6.9
		c0.2,0.2,0.4,0.5,0.3,0.8c-0.1,0.4-0.5,0.4-1,0.4c-3.2,0-6.3,0-9.5,0c-1.6,0-1.6-1.3-1.4-2.3c0.3-1.8-0.4-2.2-2.1-2.2
		c-3.1,0.1-6.1,0.1-9.1,0.1C63.1,6.6,63.1,6.1,63.1,5.8z"/>
	<path class="st1" d="M56.7,24.1c0.3-0.3,0.7-0.4,1.2-0.4c7.4,0,14.8,0,22.2,0.3c-0.6,0-1.3,0-1.8,0c-7.1,0-14,0.1-21.1,0.1
		C57,24.2,56.9,24.2,56.7,24.1z"/>
</g>
</svg>
