<svg xmlns="http://www.w3.org/2000/svg" width="66" height="32" viewBox="0 0 66 32">
    <g fill="none" fill-rule="evenodd">
        <g opacity=".5">
            <path d="M32 0h32v32H32z"/>
            <path fill="#920CC4" fill-rule="nonzero" d="M48 4v14.067a5.33 5.33 0 0 0-2.667-.734A5.332 5.332 0 0 0 40 22.667 5.332 5.332 0 0 0 45.333 28a5.332 5.332 0 0 0 5.334-5.333V9.333H56V4h-8z"/>
        </g>
        <g opacity=".2">
            <path d="M48 4h24v24H48z"/>
            <path fill="#920CC4" fill-rule="nonzero" d="M60 7v10.55c-.59-.34-1.27-.55-2-.55-2.21 0-4 1.79-4 4s1.79 4 4 4 4-1.79 4-4V11h4V7h-6z"/>
        </g>
        <path d="M12-5h42v42H12z"/>
        <path fill="#920CC4" fill-rule="nonzero" d="M33 .25v18.462c-1.032-.595-2.223-.962-3.5-.962-3.867 0-7 3.133-7 7s3.133 7 7 7 7-3.133 7-7V7.25h7v-7H33z"/>
        <g opacity=".5">
            <path d="M2 0h32v32H2z"/>
            <path fill="#920CC4" fill-rule="nonzero" d="M18 4v14.067a5.33 5.33 0 0 0-2.667-.734A5.332 5.332 0 0 0 10 22.667 5.332 5.332 0 0 0 15.333 28a5.332 5.332 0 0 0 5.334-5.333V9.333H26V4h-8z"/>
        </g>
        <g opacity=".2">
            <path d="M-6 4h24v24H-6z"/>
            <path fill="#920CC4" fill-rule="nonzero" d="M6 7v10.55c-.59-.34-1.27-.55-2-.55-2.21 0-4 1.79-4 4s1.79 4 4 4 4-1.79 4-4V11h4V7H6z"/>
        </g>
    </g>
</svg>
