<svg xmlns="http://www.w3.org/2000/svg" width="95" height="30" viewBox="0 0 95 30">
    <g fill="#FFF" fill-rule="nonzero">
        <path d="M28.132 2.724c0-.423.132-.78.43-1.073.296-.293.66-.423 1.088-.423.396 0 .76.13 1.056.423.297.292.462.65.462 1.073v6.604a6.812 6.812 0 0 1 1.948-.976 7.362 7.362 0 0 1 2.244-.358c.99 0 1.914.195 2.806.553.89.358 1.65.878 2.31 1.529.66.65 1.155 1.399 1.551 2.277.396.878.594 1.79.594 2.765v11.093c0 .423-.165.78-.462 1.073-.297.293-.66.423-1.056.423-.43 0-.792-.13-1.09-.423-.296-.292-.428-.65-.428-1.073V15.086a3.59 3.59 0 0 0-.33-1.562 5.26 5.26 0 0 0-.891-1.334 3.468 3.468 0 0 0-1.354-.878c-.528-.195-1.056-.325-1.617-.325-.594 0-1.122.097-1.617.325a4.34 4.34 0 0 0-1.32.846c-.396.358-.693.78-.891 1.236a4.72 4.72 0 0 0-.364 1.529v11.255c0 .423-.165.781-.462 1.074-.297.293-.66.423-1.056.423-.429 0-.792-.13-1.089-.423-.297-.293-.429-.65-.429-1.074V2.724h-.033zM45.526 9.653c0-.423.132-.78.429-1.073.297-.293.66-.423 1.089-.423.396 0 .759.13 1.056.423.297.292.462.65.462 1.073v11.093c0 .553.1 1.073.33 1.561.198.488.528.944.891 1.334.396.39.825.683 1.353.878a4.513 4.513 0 0 0 1.65.326c.562 0 1.09-.098 1.618-.326.528-.195.957-.52 1.353-.878.363-.39.66-.813.891-1.334a3.59 3.59 0 0 0 .33-1.561V9.653c0-.423.132-.78.43-1.073.296-.293.66-.423 1.089-.423.396 0 .759.13 1.056.423.297.292.462.65.462 1.073v11.093c0 .976-.198 1.887-.594 2.765-.396.878-.891 1.626-1.552 2.277-.66.65-1.419 1.139-2.31 1.529a7.43 7.43 0 0 1-2.805.553 7.184 7.184 0 0 1-2.806-.553c-.858-.358-1.617-.878-2.31-1.529a6.841 6.841 0 0 1-1.551-2.277 7.142 7.142 0 0 1-.561-2.765V9.653zM62.952 15.086c0-.976.198-1.887.561-2.766a6.841 6.841 0 0 1 1.552-2.277c.66-.65 1.419-1.138 2.31-1.529a7.306 7.306 0 0 1 2.805-.553c.99 0 1.915.196 2.806.553.89.358 1.65.879 2.31 1.53.66.65 1.155 1.398 1.551 2.276.396.879.594 1.79.594 2.766v11.092c0 .423-.165.781-.462 1.074-.297.293-.66.423-1.056.423-.429 0-.792-.13-1.089-.423-.297-.293-.43-.65-.43-1.074V15.086a3.59 3.59 0 0 0-.33-1.562 5.26 5.26 0 0 0-.89-1.334 3.468 3.468 0 0 0-1.353-.878c-.529-.195-1.057-.325-1.618-.325-.594 0-1.122.097-1.65.325-.495.195-.957.52-1.353.878-.396.39-.693.814-.891 1.334a4.136 4.136 0 0 0-.33 1.562v11.092c0 .423-.165.781-.462 1.074-.297.293-.66.423-1.057.423-.429 0-.792-.13-1.089-.423-.297-.293-.429-.65-.429-1.074V15.086zM80.214 15.086c0-.976.198-1.887.56-2.766a6.841 6.841 0 0 1 1.552-2.277c.66-.65 1.42-1.138 2.31-1.529a7.306 7.306 0 0 1 2.806-.553c.99 0 1.914.196 2.805.553.891.358 1.65.879 2.31 1.53.66.65 1.156 1.398 1.552 2.276.396.879.594 1.79.594 2.766v2.83c0 .423-.132.78-.43 1.073-.296.293-.66.423-1.088.423h-9.902v1.334c0 .553.1 1.073.33 1.561.231.488.528.944.891 1.334.363.39.826.683 1.354.878.528.195 1.056.326 1.617.326.858 0 1.617-.228 2.31-.651.693-.423 1.188-1.008 1.551-1.757l.033-.13c.1-.293.298-.52.529-.683.264-.163.528-.26.858-.26.429 0 .792.163 1.089.455.297.293.429.65.429 1.041 0 .195-.033.358-.132.553l-.066.163c-.561 1.269-1.42 2.277-2.608 3.058-1.155.78-2.508 1.17-3.993 1.17a7.43 7.43 0 0 1-2.806-.552 6.953 6.953 0 0 1-2.31-1.53c-.66-.65-1.155-1.398-1.551-2.276a6.616 6.616 0 0 1-.594-2.765v-5.595zm3.036 1.333h8.383v-1.333a3.59 3.59 0 0 0-.33-1.562 5.26 5.26 0 0 0-.89-1.334 3.468 3.468 0 0 0-1.354-.878c-.528-.195-1.056-.325-1.617-.325-.594 0-1.122.097-1.65.325-.495.195-.958.52-1.354.878-.396.39-.693.814-.89 1.334a4.136 4.136 0 0 0-.33 1.562v1.333h.032z"/>
        <g>
            <path d="M19.644 2.87c-.288.032-.417.032-.545.032-.867-.098-5.65 0-6.356.033L11.91 3c-.065 0-.193.033-.353.033-.16.032-.61.065-1.092.163-.674.13-1.22.326-1.444.424-.385.163-.995.423-1.38.652-.61.391-1.798.945-3.403 2.674A10.76 10.76 0 0 0 2.536 9.39a12.21 12.21 0 0 0-.995 2.837c0 .033-.16.685-.225 1.272-.32 2.576.482 5.054.546 5.283 0 0 .995 3.195 3.595 5.347.224.196 1.027.946 2.6 1.761.513.261.802.424.963.49.642.293 1.476.554 3.627.619.706.033 1.252.033 1.797.033 1.637 0 3.307.097 4.976-.066.096 0 .417-.032.545.13.129.131.097.327.097.392s0 .294-.129.391c-.128.098-.289.098-.32.098-1.06.033-3.724.033-8.86-.163-1.54-.065-2.76-.685-4.269-1.565-.514-.293-1.958-1.207-3.37-2.902-1.156-1.402-1.766-2.674-1.926-3.033-1.509-3.13-1.156-6.098-1.06-7.076.321-2.51 1.22-4.272 1.509-4.793a12.644 12.644 0 0 1 2.825-3.522c2.503-2.185 5.136-2.74 5.778-2.837.064 0 .128-.033.128-.033l.45-.065a23.161 23.161 0 0 1 1.283-.098c4.622-.13 6.966-.195 7.094-.195.128 0 .61-.033.803.163.16.163.064.652.064.717 0 0-.032.13-.097.228a.795.795 0 0 1-.32.066z"/>
            <path d="M7.415 22.63c-1.734-1.37-2.793-3.326-3.274-5.445-.418-1.794-.321-3.587.289-5.38.802-2.381 2.214-4.175 4.365-5.414.128-.489.064-.978.064-1.467 0-.913-.096-.978-.899-.587l-.192.098a11.36 11.36 0 0 0-4.27 3.945c-.545.816-.93 1.663-1.251 2.577-.064.13-.128.326-.16.456-.129.457-.225.685-.257 1.109-.097.358-.193.88-.225 1.5-.064.75-.128 2.217.32 4.043.065.326.515 1.99 1.638 3.652.385.555.802 1.11 1.284 1.598a10.779 10.779 0 0 0 3.37 2.38c.45.196.61.098.642-.39v-1.566c0-.163-.032-.293-.128-.391-.096-.065-.803-.196-1.316-.718zM15.054 6.88c-.77.066-1.091-.62-1.348-1.108-.225-.49-.192-1.109.129-1.696.449-.815 1.123-.913 1.893-.913 2.729 0 5.457.065 8.186 0 1.54-.033 2.182 1.24 1.926 2.51-.097.523-.9 1.24-1.445 1.24-3.05.033-6.13.065-9.18-.033M22.212 23.022c-.128 0-.256-.033-.385-.033-2.279 0-4.558 0-6.869.033-.417 0-.706.228-.963.554-.45.62-.578 1.304-.289 1.99.321.782.931 1.075 1.798 1.075 2.696-.032 5.392 0 8.12 0 .322 0 .643.033.964-.032h.128c.578-.033.803-.555.963-.946.45-1.01-.064-2.609-1.348-2.609a15.317 15.317 0 0 0-2.119-.032M24.074 27.033c-.642.815-1.348 1.37-1.894 2.054a1.44 1.44 0 0 1-1.284.587c-.738-.033-1.476-.065-2.215 0-.962.098-1.412-.62-1.99-1.141-.224-.229.129-.229.257-.229h2.504c.834 0 .834 0 .93-.847.033-.229.097-.424.354-.424h3.338zM17.012 1.207C17.077.75 18.264.033 18.65.033h2.344c.32 0 .61.032.834.293.674.717 1.348 1.435 2.087 2.12.064.065.128.163.096.26-.032.131-.16.131-.289.131h-2.889c-.481 0-.481-.391-.417-.717.096-.555-.129-.685-.642-.685-.931.032-1.862.032-2.76.032-.033-.032-.033-.163 0-.26z"/>
            <path d="M15.054 6.9a.41.41 0 0 1 .353-.183c2.247 0 4.494 0 6.741.137h-.546c-2.15 0-4.269.045-6.42.045a.077.077 0 0 1-.128 0z"/>
        </g>
    </g>
</svg>
