<svg xmlns="http://www.w3.org/2000/svg" width="98" height="98" viewBox="0 0 98 98">
    <g fill="none" fill-rule="evenodd">
        <circle cx="49" cy="49" r="49" fill="#920CC4" fill-opacity=".2"/>
        <circle cx="49" cy="49" r="37" fill="#920CC4" fill-opacity=".4"/>
        <circle cx="49" cy="49" r="24" fill="#920CC4"/>
        <path fill="#FFF" d="M53.667 51.667H52.6l-.4-.4c1.333-1.467 2.133-3.467 2.133-5.6A8.65 8.65 0 0 0 45.667 37 8.65 8.65 0 0 0 37 45.667a8.65 8.65 0 0 0 8.667 8.666c2.133 0 4.133-.8 5.6-2.133l.4.4v1.067l6.666 6.666 2-2-6.666-6.666zm-8 0c-3.334 0-6-2.667-6-6 0-3.334 2.666-6 6-6 3.333 0 6 2.666 6 6 0 3.333-2.667 6-6 6z"/>
    </g>
</svg>
